<?xml version="1.0" encoding="UTF-8"?>
<!-- question mark: NFT verify PENDING (bytes not yet read/hashed). Single solid
     #000000 fill used as an alpha mask and tinted to the amber badge color at
     paint time by NFTGalleryDelegate::tintedIcon(). 16px artboard. -->
<svg xmlns="http://www.w3.org/2000/svg" viewBox="0 0 16 16" width="16" height="16">
  <path fill="#000000" fill-rule="evenodd" d="M8 1.5a6.5 6.5 0 1 0 0 13 6.5 6.5 0 0 0 0-13zm0 1.6c1.6 0 2.8 1.1 2.8 2.6 0 1.1-.6 1.7-1.4 2.3-.6.4-.8.7-.8 1.2v.3H6.9v-.4c0-1 .4-1.5 1.2-2.1.6-.4.9-.7.9-1.3 0-.6-.5-1-1.1-1-.7 0-1.1.4-1.2 1.1l-1.6-.2c.2-1.4 1.3-2.5 2.9-2.5zM8 11a1 1 0 1 1 0 2 1 1 0 0 1 0-2z"/>
</svg>
