<?xml version="1.0" encoding="UTF-8"?>
<!-- shield-lock silhouette: privacy/shielded (Sapling/Sprout z-address). Single
     solid #000000 fill so the PrivacyBadgeDelegate can use it as an alpha mask
     and tint it to the badge color (green) at paint time. The lock keyhole is a
     transparent cut-out (fill-rule evenodd) so it reads even when tinted. -->
<svg xmlns="http://www.w3.org/2000/svg" viewBox="0 0 24 24" width="24" height="24">
  <path fill="#000000" fill-rule="evenodd" d="M12 1.6 4 4.6v6.1c0 4.9 3.4 9.5 8 10.7 4.6-1.2 8-5.8 8-10.7V4.6L12 1.6zm0 5.6c-1.6 0-2.9 1.3-2.9 2.9v1.1h-.5c-.4 0-.8.4-.8.8v3.6c0 .4.4.8.8.8h6.8c.4 0 .8-.4.8-.8v-3.6c0-.4-.4-.8-.8-.8h-.5v-1.1c0-1.6-1.3-2.9-2.9-2.9zm0 1.5c.8 0 1.4.6 1.4 1.4v1.1h-2.8v-1.1c0-.8.6-1.4 1.4-1.4zm0 4.6c.6 0 1 .5 1 1 0 .4-.2.7-.5.9v1.1h-1v-1.1c-.3-.2-.5-.5-.5-.9 0-.5.4-1 1-1z"/>
</svg>
