<?xml version="1.0" encoding="UTF-8" standalone="no"?>
<svg
   xmlns:dc="http://purl.org/dc/elements/1.1/"
   xmlns:cc="http://creativecommons.org/ns#"
   xmlns:rdf="http://www.w3.org/1999/02/22-rdf-syntax-ns#"
   xmlns:svg="http://www.w3.org/2000/svg"
   xmlns="http://www.w3.org/2000/svg"
   xmlns:sodipodi="http://sodipodi.sourceforge.net/DTD/sodipodi-0.dtd"
   xmlns:inkscape="http://www.inkscape.org/namespaces/inkscape"
   width="7in"
   height="7in"
   viewBox="0 0 672.00001 672.00003"
   version="1.1"
   xml:space="preserve"
   style="clip-rule:evenodd;fill-rule:evenodd;stroke-linecap:round;stroke-linejoin:round;stroke-miterlimit:1.5"
   id="svg947"
   sodipodi:docname="logo2.svg"
   inkscape:version="0.92.3 (2405546, 2018-03-11)"><metadata
   id="metadata953"><rdf:RDF><cc:Work
       rdf:about=""><dc:format>image/svg+xml</dc:format><dc:type
         rdf:resource="http://purl.org/dc/dcmitype/StillImage" /><dc:title /></cc:Work></rdf:RDF></metadata><defs
   id="defs951">
        
        
        
        
        
        
        
        
    
            
            
            
        </defs><sodipodi:namedview
   pagecolor="#ffffff"
   bordercolor="#666666"
   borderopacity="1"
   objecttolerance="10"
   gridtolerance="10"
   guidetolerance="10"
   inkscape:pageopacity="0"
   inkscape:pageshadow="2"
   inkscape:window-width="1680"
   inkscape:window-height="995"
   id="namedview949"
   showgrid="false"
   inkscape:zoom="1.204"
   inkscape:cx="262.43302"
   inkscape:cy="327.00515"
   inkscape:window-x="0"
   inkscape:window-y="0"
   inkscape:window-maximized="1"
   inkscape:current-layer="svg947"
   units="in" />
    <g
   id="g906"
   transform="matrix(8.0134463,-0.61542838,0.57707593,7.5140325,-224.79791,-183.45367)">
            <path
   inkscape:connector-curvature="0"
   id="path904"
   style="fill:#403c3c;stroke:#676767;stroke-width:1.55999994px"
   d="m 101.667,55.665 c 0,-4.644 -3.536,-8.415 -7.891,-8.415 H 34.391 c -4.355,0 -7.891,3.771 -7.891,8.415 v 32.67 c 0,4.644 3.536,8.415 7.891,8.415 h 59.385 c 4.355,0 7.891,-3.771 7.891,-8.415 z" />
        </g><g
   id="g910"
   transform="matrix(3.8405464,-0.28081188,0.29027336,3.9699463,-22.993991,110.1031)">
            <rect
   id="rect908"
   style="fill:#989898"
   height="10.333"
   width="123.333"
   y="15.958"
   x="30.333" />
        </g><g
   id="g914"
   transform="matrix(3.8443014,-0.22365281,0.21741732,3.7371369,-3.322253,118.34862)">
            <rect
   id="rect912"
   style="fill:#d4d4d4"
   height="10.333"
   width="123.333"
   y="15.958"
   x="30.333" />
        </g><g
   id="g918"
   transform="matrix(8.3146924,0,0,7.5028043,-200.36838,-189.44693)"
   style="fill:#502d16">
            <path
   inkscape:connector-curvature="0"
   id="path916"
   style="fill:#502d16;stroke:#676767;stroke-width:1.54999995px"
   d="m 101.667,55.665 c 0,-4.644 -3.403,-8.415 -7.594,-8.415 h -59.98 c -4.191,0 -7.593,3.771 -7.593,8.415 v 32.67 c 0,4.644 3.402,8.415 7.593,8.415 h 59.98 c 4.191,0 7.594,-3.771 7.594,-8.415 z" />
        </g><g
   transform="matrix(0.13492995,0,0,0.13731406,123.30027,138.8355)"
   id="g930"
   style="stroke:#784421">
                <path
   d="m 408.79,544.347 c -4.781,393.34 11.42,829.733 222.972,1280.253 233.27,496.77 562.438,768.91 880.738,902.9 400.43,-203.47 700.25,-512.61 875.74,-926.93 C 2565.08,1390.14 2623.25,986.361 2613.93,546.64 2401.04,668.826 2190.35,711.166 1980.91,665.398 1800.1,625.888 1619.67,480.693 1504.39,342.5 1342.48,544.925 1094.45,674.584 905.24,674.128 603.662,673.4 408.79,544.347 408.79,544.347 Z"
   style="fill:#535050;stroke:#784421;stroke-width:113.56999969px;stroke-linecap:butt;stroke-miterlimit:1.41420996"
   id="path928"
   inkscape:connector-curvature="0" />
            </g><g
   transform="matrix(0.12668053,0,0,0.13183216,134.79779,148.99931)"
   id="g934"
   style="fill:#f4eed7">
                <path
   d="m 395.114,579.927 c -4.781,393.341 25.096,794.153 236.648,1244.673 233.27,496.77 562.438,768.91 880.738,902.9 400.43,-203.47 677.91,-509.43 866.26,-919.86 157.91,-344.09 267.28,-776.03 257.97,-1215.749 -212.9,122.186 -446.38,119.275 -655.82,73.507 C 1800.1,625.888 1626.34,498.787 1511.05,360.594 1349.14,563.019 1067.1,686.858 877.887,686.402 576.309,685.674 395.114,579.927 395.114,579.927 Z"
   style="fill:#f4eed7"
   id="path932"
   inkscape:connector-curvature="0" />
            </g><g
   inkscape:groupmode="layer"
   id="layer1"
   inkscape:label="Belt"
   style="display:inline"
   transform="translate(0,547.00007)"><g
     style="clip-rule:evenodd;fill-rule:evenodd;stroke-linecap:round;stroke-linejoin:round;stroke-miterlimit:1.5;fill:#502d16"
     transform="matrix(3.6074755,0,0,3.1676851,24.481313,-551.22181)"
     id="g922">
            <path
   d="m 174.197,108.212 c 0,-3.207 -2.286,-5.81 -5.101,-5.81 h -31.213 c -2.816,0 -5.102,2.603 -5.102,5.81 v 13.64 c 0,3.206 2.286,5.809 5.102,5.809 h 31.213 c 2.815,0 5.101,-2.603 5.101,-5.809 z"
   style="fill:#502d16;stroke:#676767;stroke-width:5.17999983px"
   id="path920"
   inkscape:connector-curvature="0" />
        </g><g
     style="clip-rule:evenodd;fill-rule:evenodd;stroke-linecap:round;stroke-linejoin:round;stroke-miterlimit:1.5;fill:#e6e6e6"
     transform="matrix(4.2945691,0,0,4.3255294,-62.20745,-679.73088)"
     id="g926">
            <circle
   cx="140.291"
   cy="113.78"
   r="5.006"
   style="fill:#e6e6e6"
   id="circle924" />
        </g></g>
<g
   id="g54"
   transform="matrix(0.36510386,0,0,0.36510386,221.10616,237.9807)">
	<path
   id="path48"
   d="M 283.703,566.652 C 126.909,566.649 -0.042,439.723 0,283.006 0.041,126.56 127.271,-0.069 284.348,0 440.756,0.068 568.032,127.094 567.754,283.35 567.478,437.987 443.017,566.516 283.703,566.652 Z M 167.976,412.915 c 0.826,-1.548 1.388,-2.66 2.004,-3.742 25.445,-44.665 50.913,-89.316 76.34,-133.991 22.263,-39.118 44.495,-78.254 66.683,-117.416 0.942,-1.662 1.903,-2.286 3.858,-2.28 25.941,0.079 51.886,0.053 77.826,0.053 1.049,0 2.1,0 3.725,0 -35.999,63.392 -71.739,126.33 -107.695,189.649 1.333,0.063 2,0.119 2.666,0.119 64.953,0.006 129.907,-0.009 194.86,0.063 2.157,0.003 2.879,-0.827 3.388,-2.663 9.766,-35.221 10.845,-70.678 2.71,-106.329 -9.696,-42.483 -30.993,-78.391 -62.356,-108.383 -14.107,-13.491 -30.008,-24.541 -47.46,-33.42 -43.209,-21.98 -88.738,-29.028 -136.376,-20.614 -47.488,8.386 -87.537,30.847 -120.288,66.24 -4.293,4.64 -8.229,9.61 -12.332,14.427 0.137,0.267 0.274,0.532 0.412,0.798 61.621,0 123.244,0 185.325,0 -1.022,1.909 -1.724,3.289 -2.487,4.635 -11.316,19.962 -22.69,39.892 -33.896,59.916 -1.292,2.309 -2.658,3.017 -5.223,3.014 -58.37,-0.076 -116.74,-0.059 -175.11,-0.059 -1.172,0 -2.344,0 -3.465,0 -29.581,92.831 12.244,209.164 117.008,255.835 101.52,45.224 207.942,3.608 257.766,-65.852 -95.989,0 -191.722,0 -287.883,0 z m 326.295,48.86 c 35.977,-39.887 67.97,-105.582 65.998,-184.502 -1.627,-64.963 -23.875,-122.092 -65.612,-172.562 -13.01,13.094 -25.66,25.825 -38.288,38.532 66.061,79.277 68.889,196.64 0.713,280.827 12.395,12.567 24.788,25.13 37.189,37.705 z"
   inkscape:connector-curvature="0"
   style="clip-rule:evenodd;fill:#c87035;fill-rule:evenodd" />
	<path
   id="path50"
   d="m 167.976,412.915 c 96.161,0 191.894,0 287.883,0 C 406.035,482.375 299.613,523.99 198.093,478.767 93.329,432.095 51.504,315.762 81.085,222.931 c 1.121,0 2.292,0 3.465,0 58.37,0 116.74,-0.017 175.11,0.059 2.565,0.003 3.932,-0.705 5.223,-3.014 11.206,-20.024 22.58,-39.954 33.896,-59.916 0.764,-1.346 1.465,-2.727 2.487,-4.635 -62.082,0 -123.704,0 -185.325,0 -0.138,-0.266 -0.274,-0.531 -0.412,-0.798 4.102,-4.816 8.038,-9.787 12.332,-14.427 32.75,-35.393 72.799,-57.854 120.288,-66.24 47.638,-8.414 93.167,-1.366 136.376,20.614 17.452,8.88 33.353,19.929 47.46,33.42 31.363,29.992 52.66,65.9 62.356,108.383 8.135,35.651 7.056,71.108 -2.71,106.329 -0.509,1.836 -1.23,2.666 -3.388,2.663 -64.953,-0.071 -129.907,-0.057 -194.86,-0.063 -0.666,0 -1.333,-0.057 -2.666,-0.119 35.956,-63.319 71.696,-126.257 107.695,-189.649 -1.625,0 -2.676,0 -3.725,0 -25.94,0 -51.885,0.026 -77.826,-0.053 -1.955,-0.006 -2.916,0.618 -3.858,2.28 -22.188,39.162 -44.419,78.297 -66.683,117.416 -25.428,44.675 -50.895,89.326 -76.34,133.991 -0.616,1.083 -1.178,2.195 -2.004,3.743 z"
   inkscape:connector-curvature="0"
   style="clip-rule:evenodd;fill:none;fill-rule:evenodd" />
	<path
   id="path52"
   d="M 494.271,461.775 C 481.87,449.2 469.477,436.636 457.082,424.07 c 68.176,-84.187 65.348,-201.549 -0.713,-280.827 12.628,-12.707 25.278,-25.438 38.288,-38.532 41.737,50.469 63.985,107.599 65.612,172.562 1.972,78.92 -30.021,144.616 -65.998,184.502 z"
   inkscape:connector-curvature="0"
   style="clip-rule:evenodd;fill:none;fill-rule:evenodd" />
</g></svg>